g FieldBuilding_1302_03_MountainHut_LightMesh
v -4.9866467 0.33131468 1.6531001
v -5.1300254 0.32344794 1.3745518
v -5.0581117 0.32344797 1.3215375
v -4.809547 0.33131468 1.6531001
v -4.9459143 0.3234479 1.2906681
v -4.809547 0.3234479 1.2682207
v -4.6731796 0.3234479 1.2906681
v -5.1108656 0.33131468 1.6531001
v -4.5609827 0.32344803 1.3215375
v -4.9866467 0.39238352 1.6531001
v -5.1108656 0.39238352 1.6531001
v -4.6324472 0.33131468 1.6531001
v -4.4890685 0.32344803 1.3745518
v -4.5092835 0.33131468 1.6531001
v -4.9866467 0.45345238 1.6531001
v -5.1108656 0.45345238 1.6531001
v -4.809547 0.39238352 1.6531001
v -4.809547 0.45345238 1.6531001
v -5.0122814 0.45345253 2.027443
v -4.984547 0.45345253 2.0540063
v -4.6324472 0.39238352 1.6531001
v -4.5092835 0.39238352 1.6531001
v -4.6324472 0.45345238 1.6531001
v -4.5092835 0.45345238 1.6531001
v -4.6068125 0.45345253 2.0274408
v -4.634547 0.45345253 2.0540063
v -4.809547 0.45345253 2.0540066
v -5.0088925 0.45345253 2.1143322
v -4.809547 0.45345253 2.1143322
v -5.0535703 0.45345253 2.0852618
v -5.0122814 0.45345253 2.027443
v -4.6102014 0.45345253 2.1143322
v -4.6068125 0.45345253 2.0274408
v -4.5655527 0.45345253 2.085241
vt 0.24023438 0.7626953
vt 0 1
vt 0.125 1
vt 0.5 0.7597656
vt 0.25 1
vt 0.5 1
vt 0.75 1
vt 0 0.6557617
vt 0.875 1
vt 0.24511719 0.75634766
vt 0 0.6455078
vt 0.7597656 0.7626953
vt 1 1
vt 1 0.6489258
vt 0.25 0.75
vt 0 0.6352539
vt 0.5 0.7548828
vt 0.5 0.75
vt 0.24475098 0.26513672
vt 0.34375 0.25
vt 0.7548828 0.75634766
vt 1 0.6381836
vt 0.75 0.75
vt 1 0.6274414
vt 0.7553711 0.26513672
vt 0.65625 0.25
vt 0.5 0.25
vt 0.088134766 0
vt 0.5 0
vt 2.7418137E-06 0.026412964
vt 0.24475098 0.26513672
vt 0.9121094 0
vt 0.7553711 0.26513672
vt 1 0.026275635
vn -0.00067710876 0.92529297 -0.37963867
vn -0.011657715 0.9995117 -0.022232056
vn -0.0069465637 1 -0.020828247
vn -0 0.92285156 -0.38500977
vn -0.0044059753 1 -0.020050049
vn -0 1 -0.020431519
vn 0.0044021606 1 -0.020050049
vn -0 0.91259766 -0.4091797
vn 0.0069465637 1 -0.020828247
vn -0 0 -1
vn -0 0 -1
vn 0.0006785393 0.92529297 -0.3791504
vn 0.011703491 0.9995117 -0.022201538
vn -0 0.91259766 -0.40844727
vn -0 0.96240234 -0.2722168
vn -0 0.93652344 -0.3503418
vn -0 0 -1
vn -0 0.96435547 -0.26416016
vn -0 1 -4.172325E-07
vn -0 1 -2.3841858E-07
vn -0 0 -1
vn -0 0 -1
vn -0 0.96240234 -0.27197266
vn -0 0.9370117 -0.34960938
vn -0 1 -4.172325E-07
vn -0 1 -2.9802322E-07
vn -0 1 -1.7881393E-07
vn -0 1 1.7881393E-07
vn -0 1 2.9802322E-07
vn -2.3841858E-07 1 -3.5762787E-07
vn -0 1 -4.172325E-07
vn -0 1 0
vn -0 1 -4.172325E-07
vn 2.3841858E-07 1 -2.9802322E-07
g FieldBuilding_1302_03_MountainHut_LightMesh_0
f 3/3/3 2/2/2 1/1/1
f 4/4/4 3/3/3 1/1/1
f 4/4/4 5/5/5 3/3/3
f 5/5/5 4/4/4 6/6/6
f 7/7/7 6/6/6 4/4/4
f 1/1/1 2/2/2 8/8/8
f 4/4/4 9/9/9 7/7/7
f 10/10/10 1/1/1 8/8/8
f 4/4/4 1/1/1 10/10/10
f 11/11/11 10/10/10 8/8/8
f 4/4/4 12/12/12 9/9/9
f 12/12/12 13/13/13 9/9/9
f 14/14/14 13/13/13 12/12/12
f 15/15/15 10/10/10 11/11/11
f 16/16/16 15/15/15 11/11/11
f 17/17/17 4/4/4 10/10/10
f 12/12/12 4/4/4 17/17/17
f 17/17/17 10/10/10 15/15/15
f 18/18/18 17/17/17 15/15/15
f 19/19/19 15/15/15 16/16/16
f 15/15/15 19/19/19 18/18/18
f 19/19/19 20/20/20 18/18/18
f 14/14/14 12/12/12 21/21/21
f 21/21/21 12/12/12 17/17/17
f 21/21/21 17/17/17 18/18/18
f 22/22/22 14/14/14 21/21/21
f 22/22/22 21/21/21 23/23/23
f 23/23/23 21/21/21 18/18/18
f 24/24/24 22/22/22 23/23/23
f 25/25/25 24/24/24 23/23/23
f 25/25/25 23/23/23 26/26/26
f 23/23/23 18/18/18 26/26/26
f 20/20/20 27/27/27 18/18/18
f 18/18/18 27/27/27 26/26/26
f 27/27/27 20/20/20 28/28/28
f 29/29/29 27/27/27 28/28/28
f 27/27/27 29/29/29 26/26/26
f 28/28/28 20/20/20 30/30/30
f 20/20/20 31/31/31 30/30/30
f 31/31/31 16/16/16 30/30/30
f 29/29/29 32/32/32 26/26/26
f 33/33/33 26/26/26 32/32/32
f 33/33/33 34/34/34 24/24/24
f 34/34/34 33/33/33 32/32/32
