g mesh_xq_wy_huan01
v -0.2694183 -0.7149626 0.04834336
v -0.17531204 -0.74334383 0.04834336
v -0.16634953 -0.44011268 -0.04725659
v -0.10809332 -0.45803767 -0.04725659
v -0.07672459 -0.75977504 0.04834336
v -0.04684961 -0.4670002 -0.04725659
v 0.024850368 -0.7642563 0.04834336
v 0.015887856 -0.4699877 -0.04725659
v 0.12642533 -0.75380003 0.04834336
v 0.07713163 -0.46401268 -0.04725659
v 0.22202528 -0.7313938 0.04834336
v 0.13688159 -0.45056894 -0.04725659
v 0.313144 -0.6970376 0.04834336
v 0.1921503 -0.4281627 -0.04725659
v 0.39978147 -0.6522251 0.04834336
v 0.24592525 -0.40127522 -0.04725659
v 0.47745642 -0.5969564 0.04834336
v 0.29372525 -0.36691898 -0.04725659
v 0.5491564 -0.5312314 0.04834336
v 0.33704397 -0.32658774 -0.04725659
v 0.6104001 -0.45953143 0.04834336
v 0.37588146 -0.28177527 -0.04725659
v 0.6641751 -0.37886897 0.04834336
v 0.40874395 -0.23248154 -0.04725659
v 0.7060001 -0.2922315 0.04834336
v 0.4341377 -0.17870653 -0.04725659
v 0.7373688 -0.19961905 0.04834336
v 0.45355645 -0.12194407 -0.04725659
v 0.7582813 -0.1010316 0.04834336
v 0.46550643 -0.06219411 -0.04725659
v 0.7642563 0.00054335594 0.04834336
v 0.4699877 0.00054335594 -0.04725659
v 0.7582813 0.10211831 0.04834336
v 0.46550643 0.06328082 -0.04725659
v 0.7373688 0.19921201 0.04834336
v 0.45355645 0.12303084 -0.04725659
v 0.7060001 0.29182452 0.04834336
v 0.4341377 0.1797933 -0.04725659
v 0.6641751 0.3784619 0.04834336
v 0.40874395 0.2320745 -0.04725659
v 0.6104001 0.4591244 0.04834336
v 0.37588146 0.282862 -0.04725659
v 0.5491564 0.5323182 0.04834336
v 0.33704397 0.32767445 -0.04725659
v 0.47745642 0.59654933 0.04834336
v 0.29372525 0.366512 -0.04725659
v 0.39978147 0.6518181 0.04834336
v 0.24592525 0.40086824 -0.04725659
v 0.313144 0.69663054 0.04834336
v 0.1921503 0.42924947 -0.04725659
v 0.22202528 0.7309868 0.04834336
v 0.13688159 0.45016187 -0.04725659
v 0.12642533 0.753393 0.04834336
v 0.07713163 0.4636057 -0.04725659
v 0.024850368 0.7638493 0.04834336
v 0.015887856 0.4695807 -0.04725659
v -0.07672459 0.7608618 0.04834336
v -0.04684961 0.4680869 -0.04725659
v -0.17531204 0.7444305 0.04834336
v -0.10809332 0.4576307 -0.04725659
v -0.2694183 0.71455556 0.04834336
v -0.16634953 0.43970567 -0.04725659
vt 0 1.0000004
vt 0.033268113 1.0000004
vt 0 0
vt 0.033268113 0
vt 0.066536225 1.0000004
vt 0.066536225 0
vt 0.09980434 1.0000004
vt 0.09980434 0
vt 0.13307245 1.0000004
vt 0.13307245 0
vt 0.16634057 1.0000004
vt 0.16634057 0
vt 0.19960868 1.0000004
vt 0.19960868 0
vt 0.2328768 1.0000004
vt 0.2328768 0
vt 0.2661449 1.0000004
vt 0.2661449 0
vt 0.29941303 1.0000004
vt 0.29941303 0
vt 0.33268115 1.0000004
vt 0.33268115 0
vt 0.36594924 1.0000004
vt 0.36594924 0
vt 0.39921737 1.0000004
vt 0.39921737 0
vt 0.4324855 1.0000004
vt 0.4324855 0
vt 0.4657536 1.0000004
vt 0.4657536 0
vt 0.4990217 1.0000004
vt 0.4990217 0
vt 0.53424674 1.0000004
vt 0.53424674 0
vt 0.5675149 1.0000004
vt 0.5675149 0
vt 0.600783 1.0000004
vt 0.600783 0
vt 0.6340511 1.0000004
vt 0.6340511 0
vt 0.66731924 1.0000004
vt 0.66731924 0
vt 0.70058733 1.0000004
vt 0.70058733 0
vt 0.7338554 1.0000004
vt 0.7338554 0
vt 0.7671236 1.0000004
vt 0.7671236 0
vt 0.8003917 1.0000004
vt 0.8003917 0
vt 0.83365977 1.0000004
vt 0.83365977 0
vt 0.8669279 1.0000004
vt 0.8669279 0
vt 0.900196 1.0000004
vt 0.900196 0
vt 0.9334641 1.0000004
vt 0.9334641 0
vt 0.96673226 1.0000004
vt 0.96673226 0
vt 1.0000004 1.0000004
vt 1.0000004 0
vn -0.09309065 -0.29921532 -0.9496338
vn -0.07347536 -0.29921532 -0.9513525
vn -0.09309065 -0.29921532 -0.9496338
vn -0.07347536 -0.29921532 -0.9513525
vn -0.034244746 -0.30902296 -0.95043784
vn -0.034244746 -0.30902296 -0.95043784
vn 0.014793485 -0.30902296 -0.9509395
vn 0.014793485 -0.30902296 -0.9509395
vn 0.0540241 -0.30902296 -0.9495189
vn 0.0540241 -0.30902296 -0.9495189
vn 0.093254685 -0.29921532 -0.9496177
vn 0.093254685 -0.29921532 -0.9496177
vn 0.12267764 -0.27960002 -0.95224684
vn 0.12267764 -0.27960002 -0.95224684
vn 0.16190822 -0.25998473 -0.951942
vn 0.16190822 -0.25998473 -0.951942
vn 0.19133118 -0.24036941 -0.95163804
vn 0.19133118 -0.24036941 -0.95163804
vn 0.22075412 -0.21094647 -0.9522443
vn 0.22075412 -0.21094647 -0.9522443
vn 0.2501771 -0.18152353 -0.9510313
vn 0.2501771 -0.18152353 -0.9510313
vn 0.26979238 -0.15210058 -0.95082986
vn 0.26979238 -0.15210058 -0.95082986
vn 0.28940767 -0.12267764 -0.94931203
vn 0.28940767 -0.12267764 -0.94931203
vn 0.29921532 -0.08344704 -0.9505297
vn 0.29921532 -0.08344704 -0.9505297
vn 0.30902296 -0.044216454 -0.95002615
vn 0.30902296 -0.044216454 -0.95002615
vn 0.30902296 0.004821807 -0.95104235
vn 0.30902296 0.004821807 -0.95104235
vn 0.30902296 0.044052392 -0.9500338
vn 0.30902296 0.044052392 -0.9500338
vn 0.29921532 0.08328301 -0.9505441
vn 0.29921532 0.08328301 -0.9505441
vn 0.28940767 0.12251359 -0.94933325
vn 0.28940767 0.12251359 -0.94933325
vn 0.26979238 0.15193653 -0.9508561
vn 0.26979238 0.15193653 -0.9508561
vn 0.2501771 0.18135947 -0.9510626
vn 0.2501771 0.18135947 -0.9510626
vn 0.22075412 0.21078241 -0.9522806
vn 0.22075412 0.21078241 -0.9522806
vn 0.19133118 0.2402054 -0.95167947
vn 0.19133118 0.2402054 -0.95167947
vn 0.16190822 0.2598207 -0.95198685
vn 0.16190822 0.2598207 -0.95198685
vn 0.12267764 0.279436 -0.95229495
vn 0.12267764 0.279436 -0.95229495
vn 0.093254685 0.29905128 -0.94966936
vn 0.093254685 0.29905128 -0.94966936
vn 0.0540241 0.30885893 -0.9495723
vn 0.0540241 0.30885893 -0.9495723
vn 0.014793485 0.30885893 -0.9509928
vn 0.014793485 0.30885893 -0.9509928
vn -0.034244746 0.30885893 -0.95049113
vn -0.034244746 0.30885893 -0.95049113
vn -0.07347536 0.29905128 -0.9514041
vn -0.07347536 0.29905128 -0.9514041
vn -0.09309065 0.29905128 -0.94968545
vn -0.09309065 0.29905128 -0.94968545
g mesh_xq_wy_huan01_0
f 3/3/3 2/2/2 1/1/1
f 2/2/2 3/3/3 4/4/4
f 4/4/4 5/5/5 2/2/2
f 5/5/5 4/4/4 6/6/6
f 6/6/6 7/7/7 5/5/5
f 7/7/7 6/6/6 8/8/8
f 8/8/8 9/9/9 7/7/7
f 9/9/9 8/8/8 10/10/10
f 10/10/10 11/11/11 9/9/9
f 11/11/11 10/10/10 12/12/12
f 12/12/12 13/13/13 11/11/11
f 13/13/13 12/12/12 14/14/14
f 14/14/14 15/15/15 13/13/13
f 15/15/15 14/14/14 16/16/16
f 16/16/16 17/17/17 15/15/15
f 17/17/17 16/16/16 18/18/18
f 18/18/18 19/19/19 17/17/17
f 19/19/19 18/18/18 20/20/20
f 20/20/20 21/21/21 19/19/19
f 21/21/21 20/20/20 22/22/22
f 22/22/22 23/23/23 21/21/21
f 23/23/23 22/22/22 24/24/24
f 24/24/24 25/25/25 23/23/23
f 25/25/25 24/24/24 26/26/26
f 26/26/26 27/27/27 25/25/25
f 27/27/27 26/26/26 28/28/28
f 28/28/28 29/29/29 27/27/27
f 29/29/29 28/28/28 30/30/30
f 30/30/30 31/31/31 29/29/29
f 31/31/31 30/30/30 32/32/32
f 32/32/32 33/33/33 31/31/31
f 33/33/33 32/32/32 34/34/34
f 34/34/34 35/35/35 33/33/33
f 35/35/35 34/34/34 36/36/36
f 36/36/36 37/37/37 35/35/35
f 37/37/37 36/36/36 38/38/38
f 38/38/38 39/39/39 37/37/37
f 39/39/39 38/38/38 40/40/40
f 40/40/40 41/41/41 39/39/39
f 41/41/41 40/40/40 42/42/42
f 42/42/42 43/43/43 41/41/41
f 43/43/43 42/42/42 44/44/44
f 44/44/44 45/45/45 43/43/43
f 45/45/45 44/44/44 46/46/46
f 46/46/46 47/47/47 45/45/45
f 47/47/47 46/46/46 48/48/48
f 48/48/48 49/49/49 47/47/47
f 49/49/49 48/48/48 50/50/50
f 50/50/50 51/51/51 49/49/49
f 51/51/51 50/50/50 52/52/52
f 52/52/52 53/53/53 51/51/51
f 53/53/53 52/52/52 54/54/54
f 54/54/54 55/55/55 53/53/53
f 55/55/55 54/54/54 56/56/56
f 56/56/56 57/57/57 55/55/55
f 57/57/57 56/56/56 58/58/58
f 58/58/58 59/59/59 57/57/57
f 59/59/59 58/58/58 60/60/60
f 60/60/60 61/61/61 59/59/59
f 61/61/61 60/60/60 62/62/62
